<svg xmlns="http://www.w3.org/2000/svg" width="600" height="400" viewBox="0 0 600 400"><rect width="100%" height="100%" fill="#DDDDDD"/><path fill="#999999" d="M135.1 214.64h24.85v9.55h-36.42v-62.18h11.57v52.63Zm50.95-35.26q4.9 0 8.92 1.59 4.03 1.6 6.89 4.52 2.85 2.92 4.4 7.14 1.55 4.21 1.55 9.41 0 5.25-1.55 9.46-1.55 4.22-4.4 7.19-2.86 2.96-6.89 4.55-4.02 1.6-8.92 1.6-4.94 0-8.98-1.6-4.05-1.59-6.91-4.55-2.86-2.97-4.43-7.19-1.56-4.21-1.56-9.46 0-5.2 1.56-9.41 1.57-4.22 4.43-7.14 2.86-2.92 6.91-4.52 4.04-1.59 8.98-1.59Zm0 37.28q5.51 0 8.15-3.69 2.65-3.7 2.65-10.84t-2.65-10.88q-2.64-3.74-8.15-3.74-5.59 0-8.28 3.76-2.68 3.77-2.68 10.86 0 7.1 2.68 10.82 2.69 3.71 8.28 3.71Zm53.19-3.87v-7.43q-4.6.21-7.74.79-3.14.58-5.03 1.49-1.89.9-2.71 2.1-.81 1.21-.81 2.62 0 2.8 1.65 4 1.66 1.21 4.32 1.21 3.27 0 5.66-1.18 2.38-1.19 4.66-3.6Zm-22.44-23.17-1.89-3.4q7.61-6.97 18.31-6.97 3.87 0 6.93 1.27 3.05 1.27 5.16 3.53 2.1 2.26 3.2 5.4 1.1 3.13 1.1 6.88v27.86h-4.82q-1.5 0-2.32-.45-.82-.45-1.29-1.83l-.95-3.18q-1.67 1.5-3.27 2.64-1.59 1.14-3.31 1.92-1.72.77-3.67 1.18-1.96.41-4.32.41-2.8 0-5.16-.75-2.37-.76-4.09-2.26-1.72-1.51-2.67-3.74-.94-2.24-.94-5.21 0-1.67.56-3.33.56-1.65 1.83-3.16 1.26-1.5 3.28-2.84 2.03-1.33 4.97-2.32 2.95-.99 6.86-1.61 3.91-.63 8.94-.75v-2.58q0-4.43-1.89-6.56t-5.46-2.13q-2.58 0-4.28.6-1.7.6-2.99 1.36-1.29.75-2.34 1.35-1.05.6-2.34.6-1.12 0-1.9-.58-.77-.58-1.24-1.35Zm70.47 21.5v-19.78q-1.8-2.2-3.93-3.1-2.13-.9-4.58-.9-2.41 0-4.34.9-1.94.9-3.31 2.73-1.38 1.83-2.11 4.65-.73 2.81-.73 6.64 0 3.87.62 6.56.63 2.68 1.79 4.38 1.16 1.7 2.83 2.45 1.68.76 3.75.76 3.31 0 5.63-1.38t4.38-3.91Zm0-50.83h10.63v63.9h-6.5q-2.1 0-2.66-1.94l-.91-4.25q-2.66 3.05-6.12 4.94-3.47 1.9-8.07 1.9-3.61 0-6.62-1.51-3.01-1.51-5.18-4.36-2.17-2.86-3.35-7.08-1.19-4.21-1.19-9.63 0-4.9 1.34-9.12 1.33-4.21 3.82-7.31 2.5-3.09 5.98-4.83 3.48-1.75 7.83-1.75 3.69 0 6.32 1.17 2.62 1.16 4.68 3.13v-23.26Zm21.46 19.78h10.67v44.12h-10.67v-44.12Zm12.13-12.86q0 1.38-.56 2.58-.56 1.21-1.48 2.11-.93.9-2.18 1.44-1.24.54-2.66.54-1.38 0-2.6-.54-1.23-.54-2.13-1.44-.91-.9-1.44-2.11-.54-1.2-.54-2.58 0-1.41.54-2.66.53-1.25 1.44-2.15.9-.9 2.13-1.44 1.22-.54 2.6-.54 1.42 0 2.66.54 1.25.54 2.18 1.44.92.9 1.48 2.15.56 1.25.56 2.66Zm18.57 14.8.73 3.48q1.34-1.33 2.82-2.47 1.48-1.14 3.14-1.94 1.66-.79 3.55-1.24 1.89-.46 4.13-.46 3.61 0 6.4 1.23 2.8 1.22 4.67 3.44 1.87 2.21 2.84 5.29.96 3.07.96 6.77v28.08h-10.62v-28.08q0-4.04-1.85-6.26-1.85-2.21-5.63-2.21-2.75 0-5.16 1.25-2.41 1.24-4.56 3.39v31.91h-10.62v-44.12h6.49q2.07 0 2.71 1.94Zm55.43 19.05q1.98 0 3.44-.54t2.43-1.49q.97-.94 1.46-2.27.5-1.34.5-2.93 0-3.27-1.96-5.18-1.96-1.91-5.87-1.91t-5.87 1.91q-1.96 1.91-1.96 5.18 0 1.55.5 2.88.49 1.34 1.46 2.3.97.97 2.45 1.51 1.49.54 3.42.54Zm12 25.11q0-1.29-.78-2.11-.77-.82-2.1-1.27-1.34-.45-3.12-.66-1.79-.22-3.78-.33-2-.1-4.13-.19t-4.15-.34q-1.77.98-2.86 2.32-1.1 1.33-1.1 3.09 0 1.17.58 2.18.58 1.01 1.85 1.74t3.29 1.14q2.02.41 4.95.41 2.96 0 5.11-.46 2.15-.45 3.55-1.24 1.4-.8 2.04-1.9.65-1.09.65-2.38Zm-2.11-44.59h12.69v3.95q0 1.89-2.28 2.32l-3.96.74q.9 2.27.9 4.98 0 3.27-1.31 5.92-1.31 2.64-3.63 4.49t-5.48 2.86q-3.16 1.01-6.82 1.01-1.29 0-2.49-.13-1.21-.13-2.37-.34-2.06 1.24-2.06 2.79 0 1.33 1.22 1.96 1.23.62 3.25.88t4.6.32q2.58.07 5.29.28 2.71.22 5.29.75 2.58.54 4.6 1.7 2.02 1.16 3.25 3.16 1.22 2 1.22 5.14 0 2.93-1.44 5.68-1.44 2.75-4.17 4.9-2.73 2.15-6.71 3.46t-9.05 1.31q-4.99 0-8.69-.96-3.69-.97-6.14-2.58-2.46-1.62-3.66-3.72-1.2-2.11-1.2-4.39 0-3.1 1.87-5.18 1.87-2.09 5.14-3.33-1.77-.91-2.8-2.41-1.03-1.51-1.03-3.96 0-.99.36-2.04.37-1.05 1.08-2.09.71-1.03 1.78-1.95 1.08-.93 2.54-1.66-3.35-1.8-5.27-4.81-1.91-3.01-1.91-7.06 0-3.26 1.31-5.91 1.31-2.64 3.66-4.51 2.34-1.87 5.54-2.86 3.21-.99 6.99-.99 2.84 0 5.33.58 2.5.58 4.56 1.7Zm17.85 36.76q0-1.33.49-2.54.49-1.2 1.35-2.06.86-.86 2.07-1.38 1.2-.51 2.58-.51 1.37 0 2.56.51 1.18.52 2.06 1.38.88.86 1.4 2.06.51 1.21.51 2.54 0 1.38-.51 2.56-.52 1.18-1.4 2.04-.88.86-2.06 1.36-1.19.49-2.56.49-1.38 0-2.58-.49-1.21-.5-2.07-1.36-.86-.86-1.35-2.04-.49-1.18-.49-2.56Zm20.42 0q0-1.33.5-2.54.49-1.2 1.35-2.06.86-.86 2.06-1.38 1.21-.51 2.58-.51 1.38 0 2.56.51 1.18.52 2.07 1.38.88.86 1.39 2.06.52 1.21.52 2.54 0 1.38-.52 2.56-.51 1.18-1.39 2.04-.89.86-2.07 1.36-1.18.49-2.56.49-1.37 0-2.58-.49-1.2-.5-2.06-1.36-.86-.86-1.35-2.04-.5-1.18-.5-2.56Zm20.43 0q0-1.33.49-2.54.49-1.2 1.35-2.06.86-.86 2.07-1.38 1.2-.51 2.58-.51 1.37 0 2.56.51 1.18.52 2.06 1.38.88.86 1.4 2.06.51 1.21.51 2.54 0 1.38-.51 2.56-.52 1.18-1.4 2.04-.88.86-2.06 1.36-1.19.49-2.56.49-1.38 0-2.58-.49-1.21-.5-2.07-1.36-.86-.86-1.35-2.04-.49-1.18-.49-2.56Z"/></svg>